<svg width="44" height="44" xmlns="http://www.w3.org/2000/svg"><g fill="none" fill-rule="evenodd"><circle fill="#DC4A3D" cx="22" cy="22" r="22"/><path d="M32.826 20.53v-2.86h-2.009v2.86h-2.893v2.042h2.893v2.94h2.01v-2.94h2.812V20.53h-2.813zM18.2 20.366v3.268s3.118-.005 4.388-.005c-.687 2.119-1.757 3.272-4.388 3.272-2.663 0-4.741-2.194-4.741-4.901s2.078-4.901 4.741-4.901c1.408 0 2.317.503 3.151 1.204.668-.679.612-.775 2.31-2.406A8.015 8.015 0 0 0 18.2 13.75c-4.483 0-8.117 3.694-8.117 8.25s3.634 8.25 8.117 8.25c6.7 0 8.338-5.93 7.795-9.884H18.2z" fill="#FFF"/></g></svg>