<svg width="44" height="44" xmlns="http://www.w3.org/2000/svg"><g fill="none" fill-rule="evenodd"><circle fill="#4F76A1" cx="22" cy="22" r="22"/><path d="M21.09 29.28h1.344s.406-.045.614-.269c.19-.205.184-.59.184-.59s-.026-1.804.811-2.07c.826-.262 1.886 1.744 3.01 2.515.849.583 1.494.455 1.494.455l3.005-.041s1.571-.097.826-1.333c-.061-.1-.434-.914-2.234-2.584-1.884-1.749-1.631-1.466.638-4.49 1.382-1.842 1.934-2.966 1.762-3.448-.165-.459-1.181-.337-1.181-.337l-3.383.02s-.25-.034-.437.078c-.181.108-.298.362-.298.362s-.536 1.426-1.25 2.638c-1.505 2.557-2.108 2.693-2.354 2.534-.573-.37-.43-1.487-.43-2.28 0-2.48.376-3.513-.732-3.78-.367-.089-.638-.148-1.578-.157-1.207-.012-2.229.004-2.807.287-.385.188-.682.608-.5.632.223.03.729.137.997.502.347.472.335 1.53.335 1.53s.2 2.918-.465 3.28c-.456.25-1.082-.258-2.424-2.578-.688-1.189-1.208-2.503-1.208-2.503s-.1-.245-.279-.377c-.216-.159-.52-.21-.52-.21l-3.213.022s-.483.013-.66.223c-.158.187-.013.573-.013.573s2.517 5.887 5.366 8.854c2.613 2.72 5.58 2.542 5.58 2.542" fill="#FFF"/></g></svg>